<?xml version="1.0" encoding="UTF-8" standalone="no"?>
<!-- Created with Inkscape (http://www.inkscape.org/) -->

<svg
   xmlns:dc="http://purl.org/dc/elements/1.1/"
   xmlns:cc="http://creativecommons.org/ns#"
   xmlns:rdf="http://www.w3.org/1999/02/22-rdf-syntax-ns#"
   xmlns:svg="http://www.w3.org/2000/svg"
   xmlns="http://www.w3.org/2000/svg"
   xmlns:sodipodi="http://sodipodi.sourceforge.net/DTD/sodipodi-0.dtd"
   xmlns:inkscape="http://www.inkscape.org/namespaces/inkscape"
   width="256"
   height="256"
   id="svg2"
   version="1.1"
   inkscape:version="0.48.4 r9939"
   sodipodi:docname="icon.svg"
   inkscape:export-filename="/home/pwstegman/Desktop/icon.png"
   inkscape:export-xdpi="90"
   inkscape:export-ydpi="90">
  <sodipodi:namedview
     id="base"
     pagecolor="#ffffff"
     bordercolor="#666666"
     borderopacity="1.0"
     inkscape:pageopacity="0.0"
     inkscape:pageshadow="2"
     inkscape:zoom="1.4"
     inkscape:cx="167.16896"
     inkscape:cy="114.19603"
     inkscape:document-units="px"
     inkscape:current-layer="layer4"
     showgrid="false"
     width="256px"
     showborder="true"
     inkscape:object-paths="true"
     inkscape:snap-nodes="true"
     inkscape:window-width="1366"
     inkscape:window-height="708"
     inkscape:window-x="0"
     inkscape:window-y="0"
     inkscape:window-maximized="1"
     inkscape:object-nodes="true"
     inkscape:snap-smooth-nodes="true" />
  <defs
     id="defs4">
    <clipPath
       clipPathUnits="userSpaceOnUse"
       id="clipPath6121">
      <path
         sodipodi:type="arc"
         style="fill:#3f51b5;fill-opacity:1;fill-rule:evenodd;stroke:none"
         id="path6123"
         sodipodi:cx="127.78429"
         sodipodi:cy="127.71062"
         sodipodi:rx="127.78429"
         sodipodi:ry="127.78429"
         d="m 255.56857,127.71062 a 127.78429,127.78429 0 1 1 -255.56857,0 127.78429,127.78429 0 1 1 255.56857,0 z"
         transform="matrix(0.99778393,0,0,0.99778393,0.49889242,0.5723986)" />
    </clipPath>
  </defs>
  <metadata
     id="metadata7">
    <rdf:RDF>
      <cc:Work
         rdf:about="">
        <dc:format>image/svg+xml</dc:format>
        <dc:type
           rdf:resource="http://purl.org/dc/dcmitype/StillImage" />
        <dc:title></dc:title>
      </cc:Work>
    </rdf:RDF>
  </metadata>
  <g
     transform="translate(0,-796.36216)"
     id="layer1"
     inkscape:groupmode="layer"
     inkscape:label="base">
    <path
       transform="matrix(0.99778393,0,0,0.99778393,0.49889197,796.93456)"
       d="m 255.56857,127.71062 c 0,70.57331 -57.21097,127.78428 -127.78428,127.78428 C 57.210974,255.4949 0,198.28393 0,127.71062 0,57.137304 57.210974,-0.07366943 127.78429,-0.07366943 c 70.57331,0 127.78428,57.21097343 127.78428,127.78428943 z"
       sodipodi:ry="127.78429"
       sodipodi:rx="127.78429"
       sodipodi:cy="127.71062"
       sodipodi:cx="127.78429"
       id="path2985"
       style="fill:#3f51b5;fill-rule:evenodd;stroke:none;stroke-width:1px;stroke-linecap:butt;stroke-linejoin:miter;stroke-opacity:1;fill-opacity:1"
       sodipodi:type="arc" />
  </g>
  <g
     inkscape:groupmode="layer"
     id="layer4"
     inkscape:label="shadow">
    <path
       style="fill:#000000;fill-opacity:1;opacity:0.22"
       d="M 66.84375,52.62755 C 58.13226,52.62755 51,59.53629 51,68.1588 l 0,93.21875 c 0,4.12042 1.68585,8.05518 4.65625,10.96875 0.26496,0.25989 0.53134,0.51069 0.8125,0.75 0.35445,0.43176 0.75289,0.85435 1.15625,1.25 0.2917,0.28611 0.59499,0.55135 0.90625,0.8125 0.32991,0.39494 0.6912,0.7608 1.0625,1.125 0.26496,0.25989 0.53134,0.51069 0.8125,0.75 0.35378,0.43075 0.72251,0.82396 1.125,1.21875 0.2665,0.26139 0.56087,0.50942 0.84375,0.75 0.34618,0.41919 0.73254,0.80254 1.125,1.1875 0.25439,0.24952 0.51191,0.48819 0.78125,0.71875 0.35421,0.43139 0.75321,0.82341 1.15625,1.21875 0.28112,0.27574 0.57568,0.52869 0.875,0.78125 0.32991,0.39494 0.65995,0.79205 1.03125,1.15625 0.28112,0.27574 0.57568,0.52869 0.875,0.78125 0.32991,0.39494 0.6912,0.7608 1.0625,1.125 0.2494,0.24462 0.51746,0.46109 0.78125,0.6875 0.35041,0.42561 0.72697,0.82833 1.125,1.21875 0.27055,0.26537 0.55632,0.50609 0.84375,0.75 0.32991,0.39494 0.65995,0.79205 1.03125,1.15625 0.27553,0.27026 0.55072,0.53325 0.84375,0.78125 0.32568,0.38872 0.69666,0.7349 1.0625,1.09375 0.24381,0.23914 0.49243,0.46576 0.75,0.6875 0.34589,0.41877 0.73291,0.80291 1.125,1.1875 0.27055,0.26537 0.55632,0.50609 0.84375,0.75 0.32168,0.38289 0.63928,0.77117 1,1.125 0.27055,0.26537 0.55632,0.50609 0.84375,0.75 0.32166,0.38286 0.67055,0.73995 1.03125,1.09375 0.23324,0.22877 0.4729,0.4434 0.71875,0.65625 0.34618,0.4192 0.73254,0.80254 1.125,1.1875 0.23324,0.22877 0.4729,0.4434 0.71875,0.65625 0.34589,0.41877 0.73291,0.80291 1.125,1.1875 0.22825,0.22388 0.47841,0.41636 0.71875,0.625 0.34286,0.4142 0.70563,0.83806 1.09375,1.21875 0.25998,0.255 0.53691,0.48355 0.8125,0.71875 0.31359,0.37118 0.64958,0.75004 1,1.09375 0.25998,0.255 0.53691,0.48355 0.8125,0.71875 0.31359,0.37118 0.64958,0.75003 1,1.09375 0.25998,0.255 0.53691,0.48355 0.8125,0.71875 0.31312,0.3705 0.61894,0.71938 0.96875,1.0625 0.23527,0.23077 0.5019,0.44168 0.75,0.65625 0.32991,0.39494 0.6912,0.7608 1.0625,1.125 0.22266,0.2184 0.45332,0.4211 0.6875,0.625 0.33794,0.40683 0.71206,0.78185 1.09375,1.15625 0.21209,0.20803 0.4337,0.39887 0.65625,0.59375 0.33816,0.40717 0.71176,0.81282 1.09375,1.1875 0.29729,0.2916 0.61991,0.54684 0.9375,0.8125 0.27084,0.31152 0.51522,0.64591 0.8125,0.9375 0.29729,0.2916 0.61991,0.54684 0.9375,0.8125 0.27084,0.31152 0.51522,0.6459 0.8125,0.9375 0.25997,0.255 0.53691,0.48355 0.8125,0.71875 0.29649,0.34688 0.6086,0.67739 0.9375,1 0.23013,0.22573 0.47632,0.44601 0.71875,0.65625 0.31359,0.37118 0.64958,0.75003 1,1.09375 0.2494,0.24462 0.51746,0.46109 0.78125,0.6875 0.297,0.3476 0.60796,0.70802 0.9375,1.03125 0.25438,0.24951 0.5119,0.48819 0.78125,0.71875 0.29211,0.34076 0.61405,0.65149 0.9375,0.96875 0.20151,0.19766 0.41402,0.37671 0.625,0.5625 0.32991,0.39494 0.6912,0.79205 1.0625,1.15625 0.24381,0.23914 0.49242,0.46576 0.75,0.6875 0.29263,0.34148 0.6134,0.6821 0.9375,1 0.2494,0.24462 0.51746,0.46109 0.78125,0.6875 0.28796,0.33498 0.58795,0.65654 0.90625,0.96875 0.23882,0.23425 0.49795,0.43869 0.75,0.65625 0.29657,0.347 0.57725,0.70854 0.90625,1.03125 0.28112,0.27574 0.57567,0.52869 0.875,0.78125 0.25749,0.2936 0.50013,0.59926 0.78125,0.875 0.23882,0.23425 0.49795,0.43869 0.75,0.65625 0.2886,0.33587 0.58715,0.68701 0.90625,1 0.23882,0.23425 0.49796,0.43869 0.75,0.65625 0.28738,0.33419 0.55741,0.65724 0.875,0.96875 0.21445,0.21035 0.46235,0.39684 0.6875,0.59375 0.30494,0.35883 0.62925,0.69824 0.96875,1.03125 0.18036,0.17691 0.37453,0.33258 0.5625,0.5 0.32991,0.39494 0.65995,0.7608 1.03125,1.125 0.20888,0.20489 0.43721,0.40162 0.65625,0.59375 0.3006,0.35268 0.6347,0.67234 0.96875,1 0.20925,0.20525 0.4368,0.4013 0.65625,0.59375 0.297,0.3476 0.60796,0.70802 0.9375,1.03125 0.22825,0.22388 0.47841,0.41636 0.71875,0.625 0.28014,0.32419 0.56634,0.666 0.875,0.96875 0.22825,0.22388 0.47841,0.41636 0.71875,0.625 0.27866,0.32218 0.5369,0.63652 0.84375,0.9375 0.20405,0.20014 0.4425,0.37452 0.65625,0.5625 0.29649,0.34688 0.6086,0.67739 0.9375,1 0.18036,0.17691 0.37453,0.33258 0.5625,0.5 0.31334,0.37082 0.6499,0.7191 1,1.0625 0.16979,0.16654 0.35471,0.31062 0.53125,0.46875 0.31359,0.37118 0.64958,0.75004 1,1.09375 0.22266,0.2184 0.45332,0.4211 0.6875,0.625 0.27409,0.31593 0.54251,0.61077 0.84375,0.90625 0.22486,0.22056 0.48214,0.41923 0.71875,0.625 0.26624,0.30531 0.52081,0.62014 0.8125,0.90625 0.22266,0.2184 0.45332,0.4211 0.6875,0.625 0.26713,0.30651 0.55097,0.61907 0.84375,0.90625 0.25438,0.24951 0.5119,0.48819 0.78125,0.71875 0.23506,0.2642 0.46437,0.53173 0.71875,0.78125 0.25438,0.24951 0.5119,0.48819 0.78125,0.71875 0.23506,0.2642 0.46437,0.53174 0.71875,0.78125 0.21767,0.21351 0.45881,0.39409 0.6875,0.59375 0.26301,0.30097 0.52472,0.62398 0.8125,0.90625 0.2494,0.24463 0.51746,0.46109 0.78125,0.6875 0.23083,0.25875 0.4381,0.53662 0.6875,0.78125 0.21209,0.20803 0.4337,0.39887 0.65625,0.59375 0.26526,0.30399 0.522,0.59006 0.8125,0.875 0.18323,0.17973 0.40267,0.33008 0.59375,0.5 0.28014,0.32419 0.56634,0.666 0.875,0.96875 0.21209,0.20803 0.4337,0.39887 0.65625,0.59375 0.25636,0.2921 0.50149,0.56934 0.78125,0.84375 0.19364,0.18993 0.42261,0.35227 0.625,0.53125 0.27069,0.31132 0.54665,0.61483 0.84375,0.90625 0.15921,0.15617 0.33484,0.28872 0.5,0.4375 0.29603,0.34624 0.57792,0.67795 0.90625,1 0.18807,0.18447 0.39742,0.35711 0.59375,0.53125 0.26621,0.30526 0.5521,0.58893 0.84375,0.875 0.17793,0.17453 0.37717,0.33471 0.5625,0.5 0.27161,0.31256 0.54553,0.64499 0.84375,0.9375 0.21767,0.21351 0.45881,0.39409 0.6875,0.59375 0.23533,0.26455 0.46405,0.53142 0.71875,0.78125 0.14864,0.1458 0.31492,0.26689 0.46875,0.40625 0.29603,0.34624 0.57792,0.67795 0.90625,1 0.18807,0.18447 0.39742,0.35711 0.59375,0.53125 0.25743,0.29352 0.53145,0.56808 0.8125,0.84375 0.14864,0.1458 0.31492,0.26689 0.46875,0.40625 0.28738,0.33419 0.55741,0.65724 0.875,0.96875 0.17282,0.16952 0.38269,0.30795 0.5625,0.46875 0.26301,0.30097 0.52472,0.62398 0.8125,0.90625 0.22825,0.22388 0.47841,0.41636 0.71875,0.625 0.21271,0.23575 0.39675,0.49487 0.625,0.71875 0.19094,0.18728 0.3943,0.35461 0.59375,0.53125 0.24103,0.27194 0.48855,0.55605 0.75,0.8125 0.21209,0.20803 0.4337,0.39887 0.65625,0.59375 0.22166,0.24704 0.44885,0.48467 0.6875,0.71875 0.13807,0.13543 0.29495,0.24513 0.4375,0.375 0.28014,0.32419 0.56634,0.666 0.875,0.96875 0.19094,0.18728 0.3943,0.35461 0.59375,0.53125 0.2322,0.26051 0.46774,0.53504 0.71875,0.78125 0.21209,0.20803 0.4337,0.39887 0.65625,0.59375 0.21254,0.23553 0.4282,0.46381 0.65625,0.6875 0.13248,0.12994 0.26964,0.25017 0.40625,0.375 0.2757,0.31812 0.57178,0.64009 0.875,0.9375 0.18036,0.17691 0.37453,0.33258 0.5625,0.5 0.2322,0.26051 0.46774,0.53504 0.71875,0.78125 0.20151,0.19766 0.41402,0.37671 0.625,0.5625 0.21254,0.23553 0.4282,0.46381 0.65625,0.6875 0.16979,0.16654 0.35471,0.31062 0.53125,0.46875 0.23978,0.27032 0.45878,0.5575 0.71875,0.8125 0.21209,0.20803 0.4337,0.39887 0.65625,0.59375 0.19868,0.2183 0.38166,0.44822 0.59375,0.65625 0.18036,0.17691 0.37453,0.33258 0.5625,0.5 0.2233,0.24913 0.44693,0.51403 0.6875,0.75 0.18036,0.17691 0.37453,0.33258 0.5625,0.5 0.22006,0.24501 0.41946,0.48649 0.65625,0.71875 0.17282,0.16952 0.38269,0.30795 0.5625,0.46875 0.22632,0.25297 0.4434,0.51057 0.6875,0.75 0.1219,0.11957 0.24959,0.2285 0.375,0.34375 0.26526,0.30399 0.522,0.59006 0.8125,0.875 0.15685,0.15385 0.33738,0.29083 0.5,0.4375 0.2322,0.26051 0.46774,0.53504 0.71875,0.78125 0.16979,0.16654 0.35471,0.31062 0.53125,0.46875 0.21434,0.23779 0.42612,0.49302 0.65625,0.71875 0.16979,0.16654 0.35471,0.31062 0.53125,0.46875 0.21434,0.23779 0.42612,0.49302 0.65625,0.71875 0.16979,0.16654 0.35471,0.31062 0.53125,0.46875 0.21081,0.23337 0.39895,0.46577 0.625,0.6875 0.16725,0.16405 0.35744,0.31286 0.53125,0.46875 0.21254,0.23553 0.4282,0.46381 0.65625,0.6875 0.13248,0.12994 0.26964,0.25017 0.40625,0.375 0.23968,0.27018 0.49015,0.52637 0.75,0.78125 0.14864,0.1458 0.31492,0.26689 0.46875,0.40625 0.2218,0.24722 0.41743,0.51575 0.65625,0.75 0.1642,0.16106 0.32948,0.31556 0.5,0.46875 0.20596,0.22731 0.40455,0.44002 0.625,0.65625 0.14644,0.14364 0.31727,0.26886 0.46875,0.40625 0.22006,0.24501 0.41946,0.48649 0.65625,0.71875 0.14087,0.13817 0.29197,0.27386 0.4375,0.40625 0.21864,0.24321 0.45237,0.48812 0.6875,0.71875 0.15921,0.15617 0.33484,0.28872 0.5,0.4375 0.20149,0.22177 0.37844,0.44506 0.59375,0.65625 0.13603,0.13343 0.29711,0.24696 0.4375,0.375 0.22006,0.24501 0.41946,0.48649 0.65625,0.71875 0.13603,0.13343 0.29711,0.24696 0.4375,0.375 0.21434,0.23779 0.42612,0.49302 0.65625,0.71875 0.15922,0.15617 0.33484,0.28872 0.5,0.4375 0.1921,0.21021 0.35793,0.42435 0.5625,0.625 0.15685,0.15385 0.33738,0.29083 0.5,0.4375 0.1941,0.21267 0.3869,0.42211 0.59375,0.625 0.13248,0.12994 0.26964,0.25017 0.40625,0.375 0.20788,0.2297 0.40234,0.4691 0.625,0.6875 0.18036,0.17691 0.37453,0.33258 0.5625,0.5 0.16593,0.17873 0.32495,0.35955 0.5,0.53125 0.11692,0.11468 0.25486,0.2018 0.375,0.3125 0.21724,0.24144 0.42275,0.48972 0.65625,0.71875 0.11692,0.11468 0.25486,0.2018 0.375,0.3125 0.21724,0.24144 0.42275,0.48972 0.65625,0.71875 0.0902,0.0885 0.18914,0.16391 0.28125,0.25 0.2322,0.26051 0.46774,0.53504 0.71875,0.78125 0.16979,0.16654 0.35471,0.31062 0.53125,0.46875 0.16122,0.17316 0.29896,0.36471 0.46875,0.53125 0.14305,0.14031 0.28964,0.2719 0.4375,0.40625 0.18224,0.19823 0.36913,0.40408 0.5625,0.59375 0.16979,0.16654 0.35471,0.31062 0.53125,0.46875 0.15641,0.16752 0.3043,0.3387 0.46875,0.5 0.11133,0.1092 0.22949,0.20691 0.34375,0.3125 0.20335,0.22408 0.40755,0.44296 0.625,0.65625 0.11133,0.1092 0.22949,0.20691 0.34375,0.3125 0.20336,0.22407 0.40755,0.44296 0.625,0.65625 0.11133,0.1092 0.22949,0.20691 0.34375,0.3125 0.19868,0.2183 0.38166,0.44822 0.59375,0.65625 0.16979,0.16654 0.35471,0.31062 0.53125,0.46875 0.14682,0.15636 0.28365,0.31784 0.4375,0.46875 0.0796,0.0781 0.16889,0.14251 0.25,0.21875 0.22006,0.24501 0.41946,0.48649 0.65625,0.71875 0.11522,0.11301 0.25665,0.20335 0.375,0.3125 0.18704,0.20405 0.36369,0.42999 0.5625,0.625 0.13248,0.12994 0.26964,0.25017 0.40625,0.375 0.16811,0.18131 0.32252,0.35717 0.5,0.53125 0.11522,0.11301 0.25665,0.20335 0.375,0.3125 0.18264,0.19871 0.33743,0.40363 0.53125,0.59375 0.11522,0.11301 0.25665,0.20335 0.375,0.3125 0.17781,0.19289 0.34288,0.40898 0.53125,0.59375 0.12749,0.12505 0.27493,0.22343 0.40625,0.34375 0.1635,0.17586 0.29641,0.36221 0.46875,0.53125 0.10965,0.10755 0.23126,0.20845 0.34375,0.3125 0.17767,0.19273 0.34303,0.37788 0.53125,0.5625 0.13046,0.12797 0.27178,0.25199 0.40625,0.375 0.15618,0.16726 0.30455,0.33894 0.46875,0.5 0.15922,0.15617 0.33484,0.28872 0.5,0.4375 0.12743,0.13418 0.24235,0.27614 0.375,0.40625 0.0958,0.0939 0.21456,0.15873 0.3125,0.25 0.18023,0.19581 0.34015,0.4063 0.53125,0.59375 0.069,0.0677 0.14858,0.12117 0.21875,0.1875 0.20149,0.22177 0.37844,0.44506 0.59375,0.65625 0.10481,0.1028 0.23635,0.18164 0.34375,0.28125 0.16851,0.18179 0.32207,0.38797 0.5,0.5625 0.11692,0.11468 0.25486,0.2018 0.375,0.3125 0.14972,0.15972 0.28045,0.34596 0.4375,0.5 0.11692,0.11468 0.25486,0.2018 0.375,0.3125 0.14972,0.15972 0.28045,0.34596 0.4375,0.5 0.11133,0.1092 0.22949,0.20691 0.34375,0.3125 0.14876,0.15861 0.28151,0.31574 0.4375,0.46875 0.13046,0.12797 0.27178,0.25199 0.40625,0.375 0.13216,0.13954 0.26845,0.27109 0.40625,0.40625 0.0585,0.0573 0.12823,0.0999 0.1875,0.15625 0.1921,0.21021 0.35793,0.42435 0.5625,0.625 0.0992,0.0973 0.21093,0.18677 0.3125,0.28125 0.15424,0.16499 0.3067,0.34105 0.46875,0.5 0.12749,0.12505 0.27493,0.22343 0.40625,0.34375 0.12267,0.12881 0.21626,0.2812 0.34375,0.40625 0.11133,0.1092 0.22949,0.20691 0.34375,0.3125 0.13525,0.14306 0.26508,0.29903 0.40625,0.4375 0.14305,0.14032 0.28964,0.2719 0.4375,0.40625 0.10267,0.10658 0.2065,0.20853 0.3125,0.3125 0.0529,0.0519 0.10271,0.1052 0.15625,0.15625 0.18224,0.19823 0.36913,0.40408 0.5625,0.59375 0.10076,0.0988 0.20934,0.18537 0.3125,0.28125 0.13525,0.14306 0.26508,0.29903 0.40625,0.4375 0.14305,0.14032 0.28964,0.2719 0.4375,0.40625 0.0927,0.0957 0.18585,0.18768 0.28125,0.28125 0.0479,0.047 0.10782,0.0787 0.15625,0.125 0.17781,0.19289 0.34288,0.40898 0.53125,0.59375 0.10076,0.0988 0.20934,0.18537 0.3125,0.28125 0.12565,0.13217 0.24427,0.27802 0.375,0.40625 0.13807,0.13543 0.29495,0.24513 0.4375,0.375 0.0878,0.0904 0.15975,0.19273 0.25,0.28125 0.0423,0.0415 0.0823,0.084 0.125,0.125 0.17297,0.1871 0.34832,0.38307 0.53125,0.5625 0.0902,0.0885 0.18914,0.16391 0.28125,0.25 0.12565,0.13217 0.24427,0.27802 0.375,0.40625 0.0902,0.0885 0.18914,0.16391 0.28125,0.25 0.12565,0.13217 0.24427,0.27802 0.375,0.40625 0.0902,0.0885 0.18914,0.16391 0.28125,0.25 0.11922,0.12494 0.21998,0.2536 0.34375,0.375 0.0784,0.0769 0.17012,0.14361 0.25,0.21875 0.12914,0.13611 0.24049,0.27431 0.375,0.40625 0.0944,0.0926 0.21599,0.16 0.3125,0.25 0.11286,0.11785 0.19558,0.26032 0.3125,0.375 0.13248,0.12994 0.26964,0.25017 0.40625,0.375 0.0726,0.0741 0.14455,0.14597 0.21875,0.21875 0.0317,0.0311 0.0618,0.0629 0.0937,0.0937 0.16364,0.17602 0.32751,0.36206 0.5,0.53125 0.12749,0.12505 0.27493,0.22343 0.40625,0.34375 0.0676,0.0688 0.11845,0.15102 0.1875,0.21875 0.0529,0.0519 0.10271,0.1052 0.15625,0.15625 0.13697,0.14503 0.2632,0.29719 0.40625,0.4375 0.12749,0.12505 0.27493,0.22343 0.40625,0.34375 0.0676,0.0688 0.11845,0.15102 0.1875,0.21875 0.0267,0.0262 0.0668,0.0365 0.0937,0.0625 0.15383,0.16451 0.2759,0.34149 0.4375,0.5 0.068,0.0667 0.14964,0.12213 0.21875,0.1875 0.11599,0.12133 0.22346,0.25701 0.34375,0.375 0.0902,0.0885 0.18914,0.16391 0.28125,0.25 0.0878,0.0904 0.15982,0.19279 0.25,0.28125 0.0902,0.0885 0.18914,0.16391 0.28125,0.25 0.0878,0.0904 0.15982,0.19279 0.25,0.28125 0.0796,0.0781 0.16889,0.14251 0.25,0.21875 0.0965,0.0998 0.18184,0.215 0.28125,0.3125 0.069,0.0677 0.14858,0.12117 0.21875,0.1875 0.0965,0.0998 0.18184,0.215 0.28125,0.3125 0.069,0.0677 0.14858,0.12117 0.21875,0.1875 0.0965,0.0998 0.18184,0.215 0.28125,0.3125 0.11692,0.11468 0.25486,0.2018 0.375,0.3125 0.0472,0.0475 0.0771,0.10931 0.125,0.15625 0.0418,0.041 0.0828,0.0845 0.125,0.125 0.11749,0.12301 0.22185,0.25543 0.34375,0.375 0.0796,0.0781 0.16889,0.14251 0.25,0.21875 0.0777,0.0796 0.13914,0.17192 0.21875,0.25 0.069,0.0677 0.14858,0.12117 0.21875,0.1875 0.0866,0.0891 0.16104,0.19399 0.25,0.28125 0.0634,0.0622 0.1231,0.12644 0.1875,0.1875 0.0838,0.086 0.16406,0.16571 0.25,0.25 0.0992,0.0973 0.21093,0.18677 0.3125,0.28125 0.0522,0.0526 0.10325,0.10426 0.15625,0.15625 0.0267,0.0262 0.0668,0.0365 0.0937,0.0625 0.11286,0.11785 0.19558,0.26032 0.3125,0.375 0.11133,0.1092 0.22949,0.20691 0.34375,0.3125 0.0315,0.0314 0.0619,0.0626 0.0937,0.0937 0.0109,0.01 0.0203,0.0214 0.0312,0.0312 0.12565,0.13217 0.24427,0.27802 0.375,0.40625 0.10635,0.10431 0.23473,0.18023 0.34375,0.28125 0.0101,0.0108 0.0211,0.0205 0.0312,0.0312 0.0163,0.0161 0.0148,0.0464 0.0312,0.0625 0.0218,0.0199 0.0406,0.0427 0.0625,0.0625 0.10765,0.11207 0.20117,0.23455 0.3125,0.34375 0.0529,0.0519 0.10271,0.1052 0.15625,0.15625 0.0735,0.0751 0.14356,0.14499 0.21875,0.21875 0.0416,0.0408 0.083,0.0847 0.125,0.125 0.0838,0.086 0.16406,0.16571 0.25,0.25 0.0472,0.0463 0.10852,0.0793 0.15625,0.125 0.0767,0.0785 0.14023,0.17298 0.21875,0.25 0.0479,0.047 0.10782,0.0787 0.15625,0.125 0.0667,0.0679 0.11942,0.15197 0.1875,0.21875 0.0479,0.047 0.10782,0.0787 0.15625,0.125 0.0667,0.0679 0.11942,0.15197 0.1875,0.21875 0.10076,0.0988 0.20934,0.18537 0.3125,0.28125 0.0106,0.0104 0.0206,0.0208 0.0312,0.0312 0.10627,0.11054 0.20265,0.23601 0.3125,0.34375 0.0423,0.0415 0.0823,0.084 0.125,0.125 0.0615,0.0624 0.12486,0.12606 0.1875,0.1875 0.0584,0.0573 0.12829,0.1 0.1875,0.15625 0.13525,0.14306 0.26508,0.29903 0.40625,0.4375 0.0423,0.0415 0.0823,0.084 0.125,0.125 0.0514,0.0518 0.10405,0.10505 0.15625,0.15625 0.0902,0.0885 0.18914,0.16391 0.28125,0.25 0.0866,0.0891 0.16103,0.19399 0.25,0.28125 0.0423,0.0415 0.0823,0.084 0.125,0.125 0.0418,0.0419 0.0827,0.0835 0.125,0.125 0.0323,0.0303 0.0612,0.0638 0.0937,0.0937 0.0514,0.0518 0.10405,0.10505 0.15625,0.15625 0.0268,0.0263 0.0668,0.0364 0.0937,0.0625 0.0479,0.0482 0.0764,0.10861 0.125,0.15625 0.0784,0.0769 0.17012,0.14361 0.25,0.21875 0.0686,0.0699 0.11744,0.15003 0.1875,0.21875 0.0576,0.0565 0.1291,0.1007 0.1875,0.15625 0.0106,0.0104 0.0206,0.0208 0.0312,0.0312 0.0667,0.0679 0.11942,0.15197 0.1875,0.21875 0.0211,0.0207 0.0413,0.0419 0.0625,0.0625 0.0412,0.0414 0.0832,0.084 0.125,0.125 0.0211,0.0207 0.0413,0.0419 0.0625,0.0625 0.0319,0.0319 0.0615,0.0621 0.0937,0.0937 0.0592,0.0565 0.12748,0.10078 0.1875,0.15625 0.0507,0.0524 0.10478,0.10447 0.15625,0.15625 0.0209,0.0215 0.0415,0.0411 0.0625,0.0625 0.0263,0.0261 0.036,0.0678 0.0625,0.0937 0.0212,0.0207 0.0412,0.0419 0.0625,0.0625 0.0214,0.0212 0.041,0.0414 0.0625,0.0625 0.0208,0.0204 0.0416,0.0422 0.0625,0.0625 0.0214,0.0212 0.041,0.0414 0.0625,0.0625 0.01,0.009 0.0215,0.022 0.0312,0.0312 0.005,0.005 0.0263,-0.005 0.0312,0 0.005,0.006 -0.005,0.0256 0,0.0312 0.01,0.01 0.0216,0.0215 0.0312,0.0312 0.0101,0.01 0.0211,0.0213 0.0312,0.0312 0.0106,0.01 0.0207,0.0214 0.0312,0.0312 0.0214,0.0212 0.041,0.0414 0.0625,0.0625 0.0104,0.0102 0.0208,0.0211 0.0312,0.0312 0.0214,0.0212 0.041,0.0414 0.0625,0.0625 0.0104,0.0102 0.0208,0.0211 0.0312,0.0312 0.0207,0.0206 0.0416,0.042 0.0625,0.0625 0.0106,0.0104 0.0206,0.0209 0.0312,0.0312 0.0107,0.0106 0.0205,0.0207 0.0312,0.0312 0.0104,0.0102 0.0208,0.0211 0.0312,0.0312 0.0107,0.0106 0.0205,0.0207 0.0312,0.0312 0.0104,0.0101 0.0208,0.0211 0.0312,0.0312 0.0105,0.0104 0.0207,0.0209 0.0312,0.0312 0.005,0.005 0.0263,-0.005 0.0312,0 0.01,0.009 0.0214,0.0219 0.0312,0.0312 0.0106,0.0104 0.0206,0.0208 0.0312,0.0312 0.0106,0.0104 0.0206,0.0208 0.0312,0.0312 0.005,0.005 -0.005,0.0259 0,0.0312 0.005,0.005 0.026,-0.005 0.0312,0 0.15383,0.15044 0.30939,0.29395 0.46875,0.4375 0.17613,0.15866 0.34868,0.31863 0.53125,0.46875 0.0105,0.009 0.0207,0.0228 0.0312,0.0312 0.42297,0.34582 0.85815,0.66979 1.3125,0.96875 0.17075,0.11236 0.35646,0.20692 0.53125,0.3125 0.26549,0.16036 0.53833,0.32429 0.8125,0.46875 0.0125,0.007 0.0188,0.0247 0.0312,0.0312 0.4434,0.23068 0.91179,0.4368 1.375,0.625 0.4637,0.1884 0.95715,0.35548 1.4375,0.5 1.49158,0.44878 3.03625,0.6875 4.625,0.6875 l 5.21875,0 c 0.0709,0.0753 0.14455,0.14597 0.21875,0.21875 0.0819,0.0804 0.16491,0.14229 0.25,0.21875 0.15645,0.18509 0.29398,0.35982 0.46875,0.53125 0.10622,0.10418 0.23228,0.18366 0.34375,0.28125 0.13098,0.14978 0.263,0.29699 0.40625,0.4375 0.0774,0.0759 0.16979,0.14632 0.25,0.21875 0.15645,0.18509 0.29398,0.35982 0.46875,0.53125 0.0584,0.0573 0.12752,0.10098 0.1875,0.15625 0.16495,0.19747 0.3456,0.3804 0.53125,0.5625 0.10622,0.10418 0.23228,0.18366 0.34375,0.28125 0.12214,0.13809 0.24235,0.27614 0.375,0.40625 0.0411,0.0403 0.0831,0.0856 0.125,0.125 0.17309,0.20961 0.36626,0.40126 0.5625,0.59375 0.0584,0.0573 0.12752,0.10098 0.1875,0.15625 0.15667,0.18541 0.32495,0.35955 0.5,0.53125 0.10622,0.10418 0.23228,0.18366 0.34375,0.28125 0.11316,0.12649 0.2217,0.25528 0.34375,0.375 0.0671,0.0658 0.14951,0.12429 0.21875,0.1875 0.14779,0.17281 0.27362,0.33925 0.4375,0.5 0.09,0.0883 0.1875,0.16648 0.28125,0.25 0.12524,0.14216 0.23864,0.2725 0.375,0.40625 0.09,0.0883 0.1875,0.16648 0.28125,0.25 0.1189,0.13387 0.24619,0.2799 0.375,0.40625 0.1005,0.0986 0.20729,0.18858 0.3125,0.28125 0.10849,0.12056 0.22715,0.22938 0.34375,0.34375 0.18565,0.1821 0.36118,0.36945 0.5625,0.53125 0.0262,0.0265 0.0358,0.0676 0.0625,0.0937 0.18565,0.1821 0.36118,0.36945 0.5625,0.53125 0.0262,0.0265 0.0358,0.0676 0.0625,0.0937 0.0742,0.0728 0.14196,0.14918 0.21875,0.21875 0.1189,0.13387 0.24619,0.2799 0.375,0.40625 0.0794,0.0779 0.1676,0.14451 0.25,0.21875 0.11015,0.12265 0.22522,0.25874 0.34375,0.375 0.0794,0.0779 0.1676,0.14451 0.25,0.21875 0.11015,0.12265 0.22522,0.25874 0.34375,0.375 0.0957,0.0938 0.21254,0.16149 0.3125,0.25 0.0948,0.10357 0.1804,0.21358 0.28125,0.3125 0.18565,0.1821 0.36118,0.36945 0.5625,0.53125 0.005,0.005 -0.005,0.0259 0,0.0312 0.004,0.005 0.0273,-0.005 0.0312,0 0.18067,0.17618 0.33584,0.3742 0.53125,0.53125 0.005,0.005 -0.005,0.0259 0,0.0312 0.16495,0.19747 0.3456,0.3804 0.53125,0.5625 0.09,0.0883 0.1875,0.16648 0.28125,0.25 0.09,0.0977 0.18585,0.18767 0.28125,0.28125 0.0903,0.0885 0.18719,0.16623 0.28125,0.25 0.0854,0.0923 0.15975,0.19273 0.25,0.28125 0.15262,0.17963 0.33006,0.36456 0.5,0.53125 0.0689,0.0676 0.14761,0.12268 0.21875,0.1875 0.0973,0.10664 0.17754,0.21078 0.28125,0.3125 0.0689,0.0676 0.14761,0.12268 0.21875,0.1875 0.0973,0.10664 0.17754,0.21078 0.28125,0.3125 0.0689,0.0676 0.14761,0.12268 0.21875,0.1875 0.0922,0.10048 0.18328,0.21641 0.28125,0.3125 0.09,0.0883 0.1875,0.16648 0.28125,0.25 0.0709,0.0753 0.14455,0.14597 0.21875,0.21875 0.0544,0.0534 0.10044,0.1046 0.15625,0.15625 0.0993,0.1091 0.2065,0.20853 0.3125,0.3125 0.13968,0.16156 0.28365,0.31784 0.4375,0.46875 0.0851,0.0835 0.1927,0.13946 0.28125,0.21875 0.0271,0.0336 0.066,0.0606 0.0937,0.0937 0.0365,0.0373 0.0564,0.0883 0.0937,0.125 0.0742,0.0728 0.14196,0.14918 0.21875,0.21875 0.0709,0.0753 0.14455,0.14597 0.21875,0.21875 0.0398,0.0333 0.0846,0.0613 0.125,0.0937 0.10404,0.11498 0.20105,0.23443 0.3125,0.34375 0.009,0.0107 0.0218,0.0206 0.0312,0.0312 0.0287,0.0237 0.0648,0.0392 0.0937,0.0625 0.097,0.1063 0.17786,0.24233 0.28125,0.34375 0.0584,0.0573 0.12752,0.10098 0.1875,0.15625 0.0738,0.0787 0.14135,0.17408 0.21875,0.25 0.0584,0.0573 0.12752,0.10098 0.1875,0.15625 0.0738,0.0787 0.14135,0.17408 0.21875,0.25 0.0794,0.0779 0.1676,0.14451 0.25,0.21875 0.0513,0.0533 0.10325,0.10426 0.15625,0.15625 0.0636,0.0624 0.12199,0.12747 0.1875,0.1875 0.0612,0.0643 0.1239,0.12512 0.1875,0.1875 0.0619,0.053 0.12411,0.10531 0.1875,0.15625 0.0662,0.0699 0.11845,0.15102 0.1875,0.21875 0.0111,0.01 0.0201,0.0218 0.0312,0.0312 0.10126,0.11152 0.20425,0.23757 0.3125,0.34375 0.0269,0.0263 0.0666,0.0366 0.0937,0.0625 0.0877,0.095 0.15717,0.1902 0.25,0.28125 0.0478,0.0469 0.10732,0.0794 0.15625,0.125 0.0681,0.072 0.11644,0.14905 0.1875,0.21875 0.0373,0.0366 0.087,0.058 0.125,0.0937 0.16495,0.19747 0.3456,0.3804 0.53125,0.5625 0.0421,0.0413 0.082,0.0847 0.125,0.125 0.0594,0.0623 0.12581,0.12699 0.1875,0.1875 0.0689,0.0676 0.14761,0.12268 0.21875,0.1875 0.0312,0.0317 0.062,0.0626 0.0937,0.0937 0.009,0.0113 0.0218,0.02 0.0312,0.0312 0.0854,0.0923 0.15974,0.19271 0.25,0.28125 0.0211,0.0207 0.0412,0.0421 0.0625,0.0625 0.0709,0.0753 0.14455,0.14597 0.21875,0.21875 0.0689,0.0676 0.14761,0.12268 0.21875,0.1875 0.0209,0.021 0.0413,0.0417 0.0625,0.0625 0.0877,0.095 0.15717,0.1902 0.25,0.28125 0.0689,0.0676 0.14761,0.12268 0.21875,0.1875 0.0209,0.021 0.0413,0.0417 0.0625,0.0625 0.0738,0.0787 0.14135,0.17408 0.21875,0.25 0.0689,0.0676 0.14761,0.12268 0.21875,0.1875 0.0105,0.0104 0.0206,0.0208 0.0312,0.0312 0.0372,0.0365 0.0871,0.058 0.125,0.0937 0.015,0.0166 0.0161,0.046 0.0312,0.0625 0.0206,0.0207 0.0416,0.042 0.0625,0.0625 0.0277,0.0251 0.0658,0.0379 0.0937,0.0625 0.0465,0.048 0.0772,0.10931 0.125,0.15625 0.0644,0.0679 0.12038,0.15291 0.1875,0.21875 0.0268,0.0263 0.0666,0.0366 0.0937,0.0625 0.0375,0.0384 0.0553,0.0873 0.0937,0.125 0.0268,0.0263 0.0666,0.0367 0.0937,0.0625 0.0355,0.0362 0.0575,0.0894 0.0937,0.125 0.0584,0.0573 0.12752,0.10098 0.1875,0.15625 0.0145,0.0168 0.0479,0.0145 0.0625,0.0312 0.0155,0.0168 0.0156,0.0458 0.0312,0.0625 0.0208,0.0208 0.0415,0.0419 0.0625,0.0625 0.0102,0.01 0.021,0.0213 0.0312,0.0312 0.0413,0.0424 0.0826,0.0834 0.125,0.125 0.0478,0.0495 0.0757,0.1079 0.125,0.15625 0.0689,0.0676 0.14761,0.12268 0.21875,0.1875 0.058,0.0607 0.0961,0.12847 0.15625,0.1875 0.0269,0.0264 0.0665,0.0365 0.0937,0.0625 0.0319,0.0304 0.0614,0.0639 0.0937,0.0937 0.0105,0.0104 0.0206,0.0208 0.0312,0.0312 0.0271,0.0274 0.035,0.0668 0.0625,0.0937 0.0206,0.0202 0.0417,0.0426 0.0625,0.0625 0.005,0.005 0.0264,-0.005 0.0312,0 0.0209,0.021 0.0413,0.0417 0.0625,0.0625 0.0209,0.021 0.0413,0.0417 0.0625,0.0625 0.0217,0.0198 0.0406,0.043 0.0625,0.0625 0.0165,0.0165 0.0146,0.0462 0.0312,0.0625 0.0261,0.0253 0.0673,0.0376 0.0937,0.0625 0.0804,0.0767 0.16664,0.14577 0.25,0.21875 0.0111,0.01 0.0201,0.0217 0.0312,0.0312 0.0111,0.01 0.0201,0.0217 0.0312,0.0312 0.0228,0.0188 0.0395,0.044 0.0625,0.0625 0.034,0.0283 0.0593,0.066 0.0937,0.0937 0.006,0.005 0.0251,-0.005 0.0312,0 0.19505,0.1557 0.38571,0.30143 0.59375,0.4375 0.012,0.008 0.0192,0.0234 0.0312,0.0312 0.18391,0.11886 0.36971,0.20937 0.5625,0.3125 0.0318,0.0172 0.0617,0.0457 0.0937,0.0625 0.21557,0.11286 0.46248,0.21975 0.6875,0.3125 0.0124,0.005 0.0188,0.0262 0.0312,0.0312 0.21504,0.085 0.46544,0.15254 0.6875,0.21875 0.46659,0.14169 0.94818,0.2573 1.4375,0.3125 0.0407,0.005 0.0842,-0.004 0.125,0 0.0104,9.7e-4 0.0209,-9.3e-4 0.0312,0 0.24887,0.0233 0.49788,0.0625 0.75,0.0625 l 3.9375,0 c 0.24749,0 0.50329,-0.0384 0.75,-0.0625 0.74014,-0.0724 1.45092,-0.24723 2.15625,-0.53125 0.009,-0.004 0.0221,0.004 0.0312,0 0.2263,-0.092 0.46769,-0.19922 0.6875,-0.3125 0.4563,-0.23517 0.89332,-0.51876 1.3125,-0.84375 0.20959,-0.16249 0.42701,-0.31551 0.625,-0.5 l 29.28125,-28.84375 48.3125,0 c 2.1004,0 4.15891,-0.4141 6.0625,-1.1875 1.90359,-0.7734 3.67104,-1.88697 5.15625,-3.34375 0.3713,-0.3642 0.70134,-0.76131 1.03125,-1.15625 0.65981,-0.78988 1.23311,-1.63878 1.71875,-2.53125 0.48564,-0.89247 0.88751,-1.81335 1.1875,-2.78125 0.15379,-0.4929 0.27163,-0.99277 0.375,-1.5 0.1989,-0.98601 0.3125,-2.01138 0.3125,-3.03125 l 0,-93.21875 c 0,-0.96572 -0.10264,-1.90776 -0.28125,-2.84375 -0.0138,-0.0724 -0.0164,-0.14663 -0.0312,-0.21875 -0.0994,-0.48777 -0.22894,-0.96292 -0.375,-1.4375 -0.003,-0.009 0.003,-0.0219 0,-0.0312 -0.14609,-0.47135 -0.30919,-0.95114 -0.5,-1.40625 -0.005,-0.0127 -0.0258,-0.0185 -0.0312,-0.0312 -0.20262,-0.4798 -0.43663,-0.91697 -0.6875,-1.375 -0.018,-0.0328 -0.0443,-0.061 -0.0625,-0.0937 -0.0292,-0.0536 -0.0639,-0.103 -0.0937,-0.15625 -0.0825,-0.14597 -0.16262,-0.29408 -0.25,-0.4375 -0.1234,-0.20006 -0.24225,-0.399 -0.375,-0.59375 -0.005,-0.007 0.005,-0.0243 0,-0.0312 -0.008,-0.012 -0.023,-0.0192 -0.0312,-0.0312 -0.14586,-0.21455 -0.31175,-0.41729 -0.46875,-0.625 -0.10341,-0.13601 -0.20436,-0.27335 -0.3125,-0.40625 -0.033,-0.0408 -0.0603,-0.0845 -0.0937,-0.125 -0.009,-0.0111 -0.0219,-0.0202 -0.0312,-0.0312 -0.009,-0.0111 -0.0219,-0.0202 -0.0312,-0.0312 -0.0146,-0.0173 -0.0165,-0.0452 -0.0312,-0.0625 -0.0839,-0.0996 -0.19462,-0.18352 -0.28125,-0.28125 -0.0283,-0.0338 -0.0652,-0.0601 -0.0937,-0.0937 -0.0377,-0.0451 -0.0868,-0.0803 -0.125,-0.125 -0.14979,-0.16367 -0.28013,-0.3421 -0.4375,-0.5 -0.016,-0.0157 -0.0465,-0.0156 -0.0625,-0.0312 -0.005,-0.005 0.005,-0.0264 0,-0.0312 -0.006,-0.005 -0.0256,0.005 -0.0312,0 -0.005,-0.005 0.005,-0.0264 0,-0.0312 -0.0105,-0.0101 -0.0207,-0.0212 -0.0312,-0.0312 -0.0211,-0.0207 -0.0412,-0.0419 -0.0625,-0.0625 -0.0106,-0.0106 -0.0206,-0.0206 -0.0312,-0.0312 -0.0106,-0.0103 -0.0206,-0.0209 -0.0312,-0.0312 -0.0107,-0.0106 -0.0205,-0.0207 -0.0312,-0.0312 -0.0106,-0.0103 -0.0206,-0.0209 -0.0312,-0.0312 -0.006,-0.005 -0.0255,0.005 -0.0312,0 -0.0108,-0.0101 -0.0204,-0.0212 -0.0312,-0.0312 -0.0108,-0.0101 -0.0204,-0.0212 -0.0312,-0.0312 -0.005,-0.005 0.005,-0.0265 0,-0.0312 -0.0204,-0.0212 -0.042,-0.0414 -0.0625,-0.0625 -0.0106,-0.0103 -0.0206,-0.021 -0.0312,-0.0312 -0.0317,-0.0311 -0.0618,-0.0629 -0.0937,-0.0937 -0.0416,-0.0408 -0.083,-0.0847 -0.125,-0.125 -0.0206,-0.0207 -0.0418,-0.0419 -0.0625,-0.0625 -0.0213,-0.0206 -0.0411,-0.042 -0.0625,-0.0625 -0.0212,-0.0213 -0.0412,-0.0413 -0.0625,-0.0625 -0.0213,-0.0206 -0.0411,-0.042 -0.0625,-0.0625 -0.0529,-0.0519 -0.10271,-0.1052 -0.15625,-0.15625 -0.0195,-0.0197 -0.0429,-0.0429 -0.0625,-0.0625 -0.006,-0.005 -0.0256,0.005 -0.0312,0 -0.0263,-0.0254 -0.036,-0.0685 -0.0625,-0.0937 -0.0307,-0.031 -0.0627,-0.063 -0.0937,-0.0937 -0.0213,-0.0205 -0.0411,-0.0421 -0.0625,-0.0625 -0.0585,-0.0573 -0.12823,-0.0999 -0.1875,-0.15625 -0.0551,-0.06 -0.10016,-0.12827 -0.15625,-0.1875 -0.0729,-0.0715 -0.14464,-0.14883 -0.21875,-0.21875 -0.0208,-0.0211 -0.0416,-0.0415 -0.0625,-0.0625 -0.0425,-0.0412 -0.0821,-0.0843 -0.125,-0.125 -0.074,-0.0726 -0.14343,-0.14774 -0.21875,-0.21875 -0.0355,-0.0362 -0.0892,-0.0579 -0.125,-0.0937 -0.037,-0.0356 -0.0564,-0.0898 -0.0937,-0.125 -0.0364,-0.0372 -0.0881,-0.0569 -0.125,-0.0937 -0.037,-0.0356 -0.0564,-0.0898 -0.0937,-0.125 -0.0368,-0.0361 -0.0879,-0.0581 -0.125,-0.0937 -0.0479,-0.0482 -0.0764,-0.10857 -0.125,-0.15625 -0.0846,-0.083 -0.16371,-0.16911 -0.25,-0.25 -0.0479,-0.047 -0.10782,-0.0787 -0.15625,-0.125 -0.0466,-0.0469 -0.0778,-0.10991 -0.125,-0.15625 -0.0418,-0.043 -0.0826,-0.0825 -0.125,-0.125 -0.0427,-0.041 -0.0819,-0.0846 -0.125,-0.125 -0.0416,-0.0408 -0.083,-0.0847 -0.125,-0.125 -0.0528,-0.0533 -0.10259,-0.10361 -0.15625,-0.15625 -0.0472,-0.0463 -0.10852,-0.0794 -0.15625,-0.125 -0.0567,-0.0574 -0.0986,-0.13093 -0.15625,-0.1875 -0.0479,-0.047 -0.10782,-0.0787 -0.15625,-0.125 -0.0479,-0.0482 -0.0764,-0.10856 -0.125,-0.15625 -0.0472,-0.0463 -0.10852,-0.0794 -0.15625,-0.125 -0.0583,-0.059 -0.0969,-0.12929 -0.15625,-0.1875 -0.052,-0.051 -0.10357,-0.10599 -0.15625,-0.15625 -0.0614,-0.0623 -0.12493,-0.12613 -0.1875,-0.1875 -0.0585,-0.0573 -0.12823,-0.0999 -0.1875,-0.15625 -0.0479,-0.0482 -0.0764,-0.10856 -0.125,-0.15625 -0.0625,-0.0613 -0.12413,-0.12738 -0.1875,-0.1875 -0.0527,-0.0532 -0.10272,-0.10374 -0.15625,-0.15625 -0.1219,-0.11957 -0.24959,-0.2285 -0.375,-0.34375 -0.11763,-0.12316 -0.2217,-0.25528 -0.34375,-0.375 -0.0529,-0.0519 -0.10271,-0.1052 -0.15625,-0.15625 -0.18927,-0.20677 -0.3924,-0.39625 -0.59375,-0.59375 -0.0585,-0.0573 -0.12823,-0.0999 -0.1875,-0.15625 -0.0767,-0.0785 -0.14023,-0.17298 -0.21875,-0.25 -0.0529,-0.0519 -0.10271,-0.1052 -0.15625,-0.15625 -0.0735,-0.0751 -0.14356,-0.14499 -0.21875,-0.21875 -0.0576,-0.0565 -0.1291,-0.10071 -0.1875,-0.15625 -0.21256,-0.23555 -0.42818,-0.46379 -0.65625,-0.6875 -0.0634,-0.0622 -0.1231,-0.12644 -0.1875,-0.1875 -0.0815,-0.0836 -0.16648,-0.16807 -0.25,-0.25 -0.0634,-0.0622 -0.1231,-0.12644 -0.1875,-0.1875 -0.0815,-0.0836 -0.16648,-0.16807 -0.25,-0.25 -0.069,-0.0677 -0.14858,-0.12117 -0.21875,-0.1875 -0.074,-0.0825 -0.14284,-0.16893 -0.21875,-0.25 -0.0472,-0.0463 -0.10852,-0.0794 -0.15625,-0.125 -0.10777,-0.1122 -0.20105,-0.23443 -0.3125,-0.34375 -0.069,-0.0677 -0.14858,-0.12117 -0.21875,-0.1875 -0.0891,-0.0917 -0.15846,-0.19146 -0.25,-0.28125 -0.069,-0.0677 -0.14858,-0.12117 -0.21875,-0.1875 -0.0965,-0.0998 -0.18184,-0.215 -0.28125,-0.3125 -0.069,-0.0677 -0.14858,-0.12117 -0.21875,-0.1875 -0.0891,-0.0917 -0.15846,-0.19146 -0.25,-0.28125 -0.074,-0.0726 -0.14343,-0.14774 -0.21875,-0.21875 -0.0939,-0.097 -0.18457,-0.18642 -0.28125,-0.28125 -0.0796,-0.0781 -0.16889,-0.14251 -0.25,-0.21875 -0.0965,-0.0998 -0.18184,-0.215 -0.28125,-0.3125 -0.0796,-0.0781 -0.16889,-0.14251 -0.25,-0.21875 -0.083,-0.0941 -0.16458,-0.18899 -0.25,-0.28125 -0.0585,-0.0573 -0.12823,-0.0999 -0.1875,-0.15625 -0.11763,-0.12316 -0.2217,-0.25528 -0.34375,-0.375 -0.0796,-0.0781 -0.16889,-0.14251 -0.25,-0.21875 -0.0992,-0.10275 -0.17897,-0.21217 -0.28125,-0.3125 -0.068,-0.0667 -0.14964,-0.12213 -0.21875,-0.1875 -0.11599,-0.12133 -0.22346,-0.25701 -0.34375,-0.375 -0.10076,-0.0988 -0.20934,-0.18537 -0.3125,-0.28125 -0.0866,-0.0891 -0.16103,-0.19399 -0.25,-0.28125 -0.0634,-0.0622 -0.1231,-0.12644 -0.1875,-0.1875 -0.1224,-0.1285 -0.2478,-0.25023 -0.375,-0.375 -0.0902,-0.0885 -0.18914,-0.16391 -0.28125,-0.25 -0.10627,-0.11054 -0.20265,-0.23601 -0.3125,-0.34375 -0.0796,-0.0781 -0.16889,-0.14251 -0.25,-0.21875 -0.10924,-0.11382 -0.19947,-0.23289 -0.3125,-0.34375 -0.0992,-0.0973 -0.21093,-0.18677 -0.3125,-0.28125 -0.10624,-0.11051 -0.20269,-0.23604 -0.3125,-0.34375 -0.069,-0.0677 -0.14858,-0.12117 -0.21875,-0.1875 -0.12743,-0.13418 -0.24235,-0.27614 -0.375,-0.40625 -0.11133,-0.1092 -0.22949,-0.20691 -0.34375,-0.3125 -0.0964,-0.0998 -0.18188,-0.21503 -0.28125,-0.3125 -0.069,-0.0677 -0.14858,-0.12117 -0.21875,-0.1875 -0.13715,-0.14524 -0.263,-0.29699 -0.40625,-0.4375 -0.0902,-0.0885 -0.18914,-0.16391 -0.28125,-0.25 -0.11922,-0.12494 -0.21998,-0.2536 -0.34375,-0.375 -0.084,-0.0824 -0.19558,-0.13841 -0.28125,-0.21875 -0.13428,-0.14196 -0.23489,-0.30007 -0.375,-0.4375 -0.10076,-0.0988 -0.20934,-0.18537 -0.3125,-0.28125 -0.11922,-0.12494 -0.21998,-0.2536 -0.34375,-0.375 -0.10076,-0.0988 -0.20934,-0.18537 -0.3125,-0.28125 -0.12565,-0.13217 -0.24427,-0.27802 -0.375,-0.40625 -0.10076,-0.0988 -0.20934,-0.18537 -0.3125,-0.28125 -0.11922,-0.12494 -0.21998,-0.2536 -0.34375,-0.375 -0.0888,-0.0871 -0.19055,-0.16516 -0.28125,-0.25 -0.13898,-0.14733 -0.261,-0.29503 -0.40625,-0.4375 -0.0888,-0.0871 -0.19055,-0.16516 -0.28125,-0.25 -0.14478,-0.154 -0.28589,-0.32004 -0.4375,-0.46875 -0.10076,-0.0988 -0.20934,-0.18537 -0.3125,-0.28125 -0.12914,-0.13611 -0.24049,-0.27431 -0.375,-0.40625 -0.0888,-0.0871 -0.19055,-0.16516 -0.28125,-0.25 -0.14876,-0.15861 -0.28151,-0.31574 -0.4375,-0.46875 -0.0944,-0.0926 -0.21599,-0.16 -0.3125,-0.25 -0.14972,-0.15972 -0.28045,-0.34596 -0.4375,-0.5 -0.10634,-0.10431 -0.23473,-0.18023 -0.34375,-0.28125 -0.13428,-0.14196 -0.23489,-0.30007 -0.375,-0.4375 -0.11133,-0.1092 -0.22949,-0.20691 -0.34375,-0.3125 -0.13898,-0.14733 -0.261,-0.29503 -0.40625,-0.4375 -0.11133,-0.1092 -0.22949,-0.20691 -0.34375,-0.3125 -0.13898,-0.14733 -0.261,-0.29503 -0.40625,-0.4375 -0.0992,-0.0973 -0.21093,-0.18677 -0.3125,-0.28125 -0.15424,-0.16499 -0.3067,-0.34105 -0.46875,-0.5 -0.11133,-0.1092 -0.22949,-0.20691 -0.34375,-0.3125 -0.14478,-0.154 -0.28589,-0.32004 -0.4375,-0.46875 -0.0902,-0.0885 -0.18914,-0.16391 -0.28125,-0.25 -0.16593,-0.17873 -0.32495,-0.35955 -0.5,-0.53125 -0.15363,-0.15069 -0.30958,-0.29369 -0.46875,-0.4375 -0.11257,-0.11752 -0.22715,-0.22938 -0.34375,-0.34375 -0.0731,-0.0717 -0.1444,-0.14862 -0.21875,-0.21875 -0.18717,-0.20421 -0.36354,-0.3986 -0.5625,-0.59375 -0.10481,-0.1028 -0.23635,-0.18164 -0.34375,-0.28125 -0.1635,-0.17586 -0.29641,-0.36221 -0.46875,-0.53125 -0.10481,-0.1028 -0.23635,-0.18164 -0.34375,-0.28125 -0.16851,-0.18179 -0.32207,-0.38797 -0.5,-0.5625 -0.1219,-0.11957 -0.24959,-0.2285 -0.375,-0.34375 -0.15424,-0.16499 -0.3067,-0.34105 -0.46875,-0.5 -0.1219,-0.11957 -0.24959,-0.2285 -0.375,-0.34375 -0.15424,-0.16499 -0.3067,-0.34105 -0.46875,-0.5 -0.1219,-0.11957 -0.24959,-0.2285 -0.375,-0.34375 -0.15847,-0.16993 -0.30201,-0.33646 -0.46875,-0.5 -0.12749,-0.12505 -0.27493,-0.22343 -0.40625,-0.34375 -0.15915,-0.17073 -0.30126,-0.36696 -0.46875,-0.53125 -0.12749,-0.12505 -0.27493,-0.22343 -0.40625,-0.34375 -0.15915,-0.17073 -0.30126,-0.36697 -0.46875,-0.53125 -0.12749,-0.12505 -0.27493,-0.22343 -0.40625,-0.34375 -0.1635,-0.17586 -0.29641,-0.36221 -0.46875,-0.53125 -0.11522,-0.11301 -0.25665,-0.20335 -0.375,-0.3125 -0.17781,-0.19289 -0.34288,-0.40898 -0.53125,-0.59375 -0.13248,-0.12994 -0.26964,-0.25017 -0.40625,-0.375 -0.16364,-0.17602 -0.32751,-0.36206 -0.5,-0.53125 -0.13248,-0.12994 -0.26964,-0.25017 -0.40625,-0.375 -0.16811,-0.18131 -0.32252,-0.35717 -0.5,-0.53125 -0.13248,-0.12994 -0.26964,-0.25017 -0.40625,-0.375 -0.17297,-0.1871 -0.34832,-0.38307 -0.53125,-0.5625 -0.13248,-0.12994 -0.26964,-0.25017 -0.40625,-0.375 -0.17297,-0.1871 -0.34832,-0.38307 -0.53125,-0.5625 -0.10635,-0.10431 -0.23473,-0.18023 -0.34375,-0.28125 -0.19887,-0.21853 -0.38145,-0.44801 -0.59375,-0.65625 -0.13807,-0.13543 -0.29495,-0.24513 -0.4375,-0.375 -0.17781,-0.19289 -0.34288,-0.40898 -0.53125,-0.59375 -0.13807,-0.13543 -0.29495,-0.24513 -0.4375,-0.375 -0.17781,-0.19289 -0.34288,-0.40898 -0.53125,-0.59375 -0.13807,-0.13543 -0.29495,-0.24513 -0.4375,-0.375 -0.17781,-0.19289 -0.34288,-0.40898 -0.53125,-0.59375 -0.14305,-0.14032 -0.28964,-0.2719 -0.4375,-0.40625 -0.17767,-0.19273 -0.34303,-0.37788 -0.53125,-0.5625 -0.11133,-0.1092 -0.22949,-0.20691 -0.34375,-0.3125 -0.21254,-0.23553 -0.4282,-0.46381 -0.65625,-0.6875 -0.14864,-0.1458 -0.31492,-0.26689 -0.46875,-0.40625 -0.18264,-0.19871 -0.33743,-0.40363 -0.53125,-0.59375 -0.14864,-0.1458 -0.31492,-0.26689 -0.46875,-0.40625 -0.18704,-0.20405 -0.36369,-0.42999 -0.5625,-0.625 -0.14864,-0.1458 -0.31492,-0.26689 -0.46875,-0.40625 -0.18704,-0.20405 -0.36369,-0.42999 -0.5625,-0.625 -0.14864,-0.1458 -0.31492,-0.26689 -0.46875,-0.40625 -0.18704,-0.20405 -0.36369,-0.42999 -0.5625,-0.625 -0.11692,-0.11468 -0.25486,-0.2018 -0.375,-0.3125 -0.21724,-0.24144 -0.42275,-0.48972 -0.65625,-0.71875 -0.15363,-0.15069 -0.30958,-0.29369 -0.46875,-0.4375 -0.19144,-0.20941 -0.38994,-0.42509 -0.59375,-0.625 -0.15363,-0.15069 -0.30958,-0.29369 -0.46875,-0.4375 -0.19144,-0.20941 -0.38994,-0.42509 -0.59375,-0.625 -0.15922,-0.15617 -0.33484,-0.28872 -0.5,-0.4375 -0.1921,-0.21021 -0.35793,-0.42435 -0.5625,-0.625 -0.15922,-0.15617 -0.33484,-0.28872 -0.5,-0.4375 -0.1962,-0.21525 -0.3845,-0.451 -0.59375,-0.65625 -0.15922,-0.15617 -0.33484,-0.28872 -0.5,-0.4375 -0.1962,-0.21525 -0.3845,-0.451 -0.59375,-0.65625 -0.15921,-0.15617 -0.33484,-0.28872 -0.5,-0.4375 -0.20149,-0.22177 -0.37844,-0.44506 -0.59375,-0.65625 -0.15922,-0.15617 -0.33484,-0.28872 -0.5,-0.4375 -0.2053,-0.22649 -0.40531,-0.47201 -0.625,-0.6875 -0.15922,-0.15617 -0.33484,-0.28872 -0.5,-0.4375 -0.2053,-0.22649 -0.40531,-0.47201 -0.625,-0.6875 -0.1642,-0.16106 -0.32948,-0.31555 -0.5,-0.46875 -0.20596,-0.22731 -0.40456,-0.44002 -0.625,-0.65625 -0.16979,-0.16654 -0.35471,-0.31062 -0.53125,-0.46875 -0.2053,-0.22649 -0.40531,-0.47201 -0.625,-0.6875 -0.16979,-0.16654 -0.35471,-0.31062 -0.53125,-0.46875 -0.2053,-0.22649 -0.40531,-0.47201 -0.625,-0.6875 -0.16979,-0.16654 -0.35471,-0.31062 -0.53125,-0.46875 -0.2053,-0.22649 -0.40531,-0.47201 -0.625,-0.6875 -0.16979,-0.16654 -0.35471,-0.31062 -0.53125,-0.46875 -0.21081,-0.23337 -0.39895,-0.46577 -0.625,-0.6875 -0.15201,-0.1491 -0.34257,-0.26388 -0.5,-0.40625 -0.234,-0.26284 -0.43436,-0.53295 -0.6875,-0.78125 -0.16725,-0.16405 -0.35744,-0.31286 -0.53125,-0.46875 -0.22166,-0.24704 -0.44885,-0.48467 -0.6875,-0.71875 -0.1219,-0.11957 -0.24959,-0.2285 -0.375,-0.34375 -0.2585,-0.29494 -0.53016,-0.59807 -0.8125,-0.875 -0.18036,-0.17691 -0.37453,-0.33258 -0.5625,-0.5 -0.21434,-0.23779 -0.42612,-0.49302 -0.65625,-0.71875 -0.18036,-0.17691 -0.37453,-0.33258 -0.5625,-0.5 -0.21434,-0.23779 -0.42612,-0.49302 -0.65625,-0.71875 -0.18036,-0.17691 -0.37453,-0.33258 -0.5625,-0.5 -0.22006,-0.24501 -0.41946,-0.48649 -0.65625,-0.71875 -0.12005,-0.11776 -0.25155,-0.23019 -0.375,-0.34375 -0.27491,-0.31705 -0.57275,-0.60978 -0.875,-0.90625 -0.18036,-0.17691 -0.37453,-0.33258 -0.5625,-0.5 -0.22924,-0.25671 -0.43997,-0.5072 -0.6875,-0.75 -0.18036,-0.17691 -0.37453,-0.33258 -0.5625,-0.5 -0.2322,-0.26051 -0.46774,-0.53504 -0.71875,-0.78125 -0.18036,-0.17691 -0.37453,-0.33258 -0.5625,-0.5 -0.22924,-0.25671 -0.43997,-0.5072 -0.6875,-0.75 -0.16725,-0.16405 -0.35744,-0.31286 -0.53125,-0.46875 -0.24739,-0.28025 -0.48098,-0.54863 -0.75,-0.8125 -0.16725,-0.16405 -0.35744,-0.31286 -0.53125,-0.46875 -0.2498,-0.28342 -0.50935,-0.57706 -0.78125,-0.84375 -0.19094,-0.18728 -0.3943,-0.35461 -0.59375,-0.53125 -0.22924,-0.25671 -0.43997,-0.5072 -0.6875,-0.75 -0.16725,-0.16405 -0.35744,-0.31286 -0.53125,-0.46875 -0.25636,-0.2921 -0.50149,-0.56934 -0.78125,-0.84375 -0.16725,-0.16405 -0.35744,-0.31286 -0.53125,-0.46875 -0.2585,-0.29494 -0.53016,-0.59807 -0.8125,-0.875 -0.19094,-0.18728 -0.3943,-0.35461 -0.59375,-0.53125 -0.23835,-0.26846 -0.46047,-0.52792 -0.71875,-0.78125 -0.20151,-0.19766 -0.41402,-0.37671 -0.625,-0.5625 -0.23835,-0.26846 -0.46047,-0.52792 -0.71875,-0.78125 -0.20151,-0.19766 -0.41402,-0.37671 -0.625,-0.5625 -0.23835,-0.26846 -0.46047,-0.52792 -0.71875,-0.78125 -0.17282,-0.16952 -0.38269,-0.30795 -0.5625,-0.46875 -0.26301,-0.30097 -0.52472,-0.62398 -0.8125,-0.90625 -0.20151,-0.19766 -0.41402,-0.37671 -0.625,-0.5625 -0.24103,-0.27194 -0.48855,-0.55605 -0.75,-0.8125 -0.0958,-0.0939 -0.21456,-0.15873 -0.3125,-0.25 -0.32991,-0.39494 -0.6912,-0.7608 -1.0625,-1.125 -0.20151,-0.19766 -0.41402,-0.37671 -0.625,-0.5625 -0.2498,-0.28342 -0.50936,-0.57706 -0.78125,-0.84375 -0.20151,-0.19766 -0.41402,-0.37671 -0.625,-0.5625 -0.24739,-0.28025 -0.48098,-0.54863 -0.75,-0.8125 -0.17766,-0.17426 -0.37746,-0.33495 -0.5625,-0.5 -0.2757,-0.31812 -0.57178,-0.64009 -0.875,-0.9375 -0.10635,-0.10431 -0.23473,-0.18023 -0.34375,-0.28125 -0.32991,-0.39494 -0.6912,-0.7608 -1.0625,-1.125 -0.2071,-0.20314 -0.43916,-0.3719 -0.65625,-0.5625 -0.25434,-0.28942 -0.50391,-0.60297 -0.78125,-0.875 -0.2071,-0.20314 -0.43916,-0.3719 -0.65625,-0.5625 -0.25434,-0.28942 -0.50391,-0.60297 -0.78125,-0.875 -0.21209,-0.20803 -0.4337,-0.39887 -0.65625,-0.59375 -0.25636,-0.2921 -0.50149,-0.56934 -0.78125,-0.84375 -0.12749,-0.12505 -0.27493,-0.22343 -0.40625,-0.34375 -0.32991,-0.39494 -0.6912,-0.7608 -1.0625,-1.125 -0.12749,-0.12505 -0.27493,-0.22343 -0.40625,-0.34375 -0.32991,-0.39494 -0.6912,-0.7608 -1.0625,-1.125 -0.21209,-0.20803 -0.4337,-0.39887 -0.65625,-0.59375 -0.26526,-0.30399 -0.522,-0.59006 -0.8125,-0.875 -0.13603,-0.13343 -0.29711,-0.24696 -0.4375,-0.375 -0.32991,-0.39494 -0.6912,-0.7608 -1.0625,-1.125 -0.13807,-0.13543 -0.29495,-0.24513 -0.4375,-0.375 -0.32991,-0.39494 -0.6912,-0.7608 -1.0625,-1.125 -0.22266,-0.2184 -0.45332,-0.4211 -0.6875,-0.625 -0.26526,-0.30399 -0.522,-0.59006 -0.8125,-0.875 -0.14644,-0.14364 -0.31727,-0.26886 -0.46875,-0.40625 -0.32991,-0.39494 -0.6912,-0.7608 -1.0625,-1.125 -0.14864,-0.1458 -0.31492,-0.26689 -0.46875,-0.40625 -0.32991,-0.39494 -0.6912,-0.7608 -1.0625,-1.125 -0.22266,-0.2184 -0.45332,-0.4211 -0.6875,-0.625 -0.27409,-0.31593 -0.54251,-0.61077 -0.84375,-0.90625 -0.22266,-0.2184 -0.45332,-0.4211 -0.6875,-0.625 -0.2757,-0.31812 -0.57178,-0.64009 -0.875,-0.9375 -0.22266,-0.2184 -0.45332,-0.4211 -0.6875,-0.625 -0.2757,-0.31812 -0.57178,-0.64009 -0.875,-0.9375 -0.15921,-0.15617 -0.33484,-0.28872 -0.5,-0.4375 -0.32991,-0.39494 -0.6912,-0.7608 -1.0625,-1.125 -0.22825,-0.22388 -0.47841,-0.41636 -0.71875,-0.625 -0.28014,-0.32419 -0.56634,-0.666 -0.875,-0.96875 -0.22825,-0.22388 -0.47841,-0.41636 -0.71875,-0.625 -0.27866,-0.32218 -0.5369,-0.63652 -0.84375,-0.9375 -0.17282,-0.16952 -0.38268,-0.30795 -0.5625,-0.46875 -0.32991,-0.39494 -0.6912,-0.79205 -1.0625,-1.15625 -0.16979,-0.16654 -0.35471,-0.31062 -0.53125,-0.46875 -0.32991,-0.39494 -0.6912,-0.7608 -1.0625,-1.125 -0.23323,-0.22877 -0.4729,-0.4434 -0.71875,-0.65625 -0.2842,-0.32978 -0.59259,-0.66109 -0.90625,-0.96875 -0.23323,-0.22877 -0.4729,-0.4434 -0.71875,-0.65625 -0.2842,-0.32978 -0.59259,-0.66109 -0.90625,-0.96875 -0.18595,-0.1824 -0.39972,-0.3277 -0.59375,-0.5 -0.32991,-0.39494 -0.65995,-0.7608 -1.03125,-1.125 -0.18807,-0.18447 -0.39742,-0.35711 -0.59375,-0.53125 -0.32991,-0.39494 -0.6912,-0.7608 -1.0625,-1.125 -0.19653,-0.19277 -0.41947,-0.34977 -0.625,-0.53125 -0.32991,-0.39494 -0.65995,-0.7608 -1.03125,-1.125 -0.19653,-0.19277 -0.41946,-0.34976 -0.625,-0.53125 -0.32991,-0.39494 -0.6912,-0.79205 -1.0625,-1.15625 -0.19653,-0.19277 -0.41947,-0.34977 -0.625,-0.53125 -0.32991,-0.39494 -0.65995,-0.7608 -1.03125,-1.125 -0.2071,-0.20314 -0.43916,-0.3719 -0.65625,-0.5625 -0.32991,-0.39494 -0.65995,-0.7608 -1.03125,-1.125 -0.2071,-0.20314 -0.43916,-0.3719 -0.65625,-0.5625 -0.32991,-0.39494 -0.6912,-0.79205 -1.0625,-1.15625 -0.2071,-0.20314 -0.43916,-0.3719 -0.65625,-0.5625 -0.32991,-0.39494 -0.65995,-0.7608 -1.03125,-1.125 -0.21767,-0.21351 -0.45881,-0.39409 -0.6875,-0.59375 -0.32991,-0.39494 -0.65995,-0.7608 -1.03125,-1.125 -0.21767,-0.21351 -0.45881,-0.39409 -0.6875,-0.59375 -0.32991,-0.39494 -0.6912,-0.79205 -1.0625,-1.15625 -0.21209,-0.20803 -0.4337,-0.39887 -0.65625,-0.59375 -0.32991,-0.39494 -0.6912,-0.7608 -1.0625,-1.125 -0.22266,-0.2184 -0.45332,-0.4211 -0.6875,-0.625 -0.32991,-0.39494 -0.6912,-0.7608 -1.0625,-1.125 -0.22825,-0.22388 -0.47841,-0.41636 -0.71875,-0.625 -0.32991,-0.39494 -0.65995,-0.7608 -1.03125,-1.125 -0.22825,-0.22388 -0.47841,-0.41636 -0.71875,-0.625 -0.32991,-0.39494 -0.6912,-0.79205 -1.0625,-1.15625 -0.22825,-0.22388 -0.47841,-0.41636 -0.71875,-0.625 -0.32991,-0.39494 -0.6912,-0.79205 -1.0625,-1.15625 -0.22825,-0.22388 -0.47841,-0.41636 -0.71875,-0.625 -0.32991,-0.39494 -0.6912,-0.79205 -1.0625,-1.15625 -0.23882,-0.23425 -0.49795,-0.43869 -0.75,-0.65625 -0.32991,-0.39494 -0.65995,-0.7608 -1.03125,-1.125 -0.24568,-0.24098 -0.5216,-0.4642 -0.78125,-0.6875 -0.32991,-0.39494 -0.65995,-0.7608 -1.03125,-1.125 -0.2494,-0.24463 -0.51746,-0.46109 -0.78125,-0.6875 -0.32991,-0.39494 -0.65995,-0.7608 -1.03125,-1.125 -0.24568,-0.24098 -0.52159,-0.4642 -0.78125,-0.6875 -0.32991,-0.39494 -0.6912,-0.79205 -1.0625,-1.15625 -0.2494,-0.24463 -0.51746,-0.46109 -0.78125,-0.6875 -0.32991,-0.39494 -0.6912,-0.79205 -1.0625,-1.15625 -0.2494,-0.24463 -0.51746,-0.46109 -0.78125,-0.6875 -0.32991,-0.39494 -0.6912,-0.79205 -1.0625,-1.15625 -0.25438,-0.24952 -0.5119,-0.48819 -0.78125,-0.71875 -0.32991,-0.39494 -0.6912,-0.7608 -1.0625,-1.125 -0.25997,-0.255 -0.53691,-0.48355 -0.8125,-0.71875 -0.32991,-0.39494 -0.6912,-0.79205 -1.0625,-1.15625 -0.25997,-0.255 -0.53691,-0.48355 -0.8125,-0.71875 -0.32991,-0.39494 -0.6912,-0.79205 -1.0625,-1.15625 -0.27055,-0.26537 -0.55632,-0.50609 -0.84375,-0.75 -0.32991,-0.39494 -0.65995,-0.7608 -1.03125,-1.125 -0.27054,-0.26537 -0.55632,-0.50609 -0.84375,-0.75 -0.32991,-0.39494 -0.6912,-0.79205 -1.0625,-1.15625 -0.27055,-0.26537 -0.55632,-0.50609 -0.84375,-0.75 -0.32991,-0.39494 -0.6912,-0.79205 -1.0625,-1.15625 -0.28112,-0.27574 -0.57567,-0.52869 -0.875,-0.78125 -0.32991,-0.39494 -0.65995,-0.7608 -1.03125,-1.125 -0.28112,-0.27574 -0.57567,-0.52869 -0.875,-0.78125 -0.32991,-0.39494 -0.6912,-0.79205 -1.0625,-1.15625 -0.28112,-0.27574 -0.57567,-0.52869 -0.875,-0.78125 -0.32991,-0.39494 -0.6912,-0.79205 -1.0625,-1.15625 -0.28112,-0.27574 -0.57567,-0.52869 -0.875,-0.78125 -0.32991,-0.39494 -0.6912,-0.79205 -1.0625,-1.15625 -0.29169,-0.28611 -0.59498,-0.55135 -0.90625,-0.8125 -0.32991,-0.39494 -0.6912,-0.79205 -1.0625,-1.15625 -0.29169,-0.28611 -0.59498,-0.55135 -0.90625,-0.8125 -0.32991,-0.39494 -0.65995,-0.7608 -1.03125,-1.125 -0.27206,-0.26686 -0.58586,-0.50484 -0.875,-0.75 -0.35072,-0.42608 -0.72655,-0.85918 -1.125,-1.25 -2.9704,-2.91357 -6.98671,-4.53125 -11.1875,-4.53125 l -126.71875,0 z"
       id="path5234"
       inkscape:connector-curvature="0"
       clip-path="url(#clipPath6121)" />
  </g>
  <g
     inkscape:label="chat"
     id="layer3"
     inkscape:groupmode="layer">
    <path
       style="fill:#d6ddf3;fill-opacity:1"
       inkscape:connector-curvature="0"
       d="m 104.24136,205.68024 a 7.9195448,7.7680219 0 0 1 -7.919555,-7.76808 V 174.60812 H 64.64363 A 15.83909,15.536044 0 0 1 48.804542,159.07207 V 65.855804 c 0,-8.622512 7.127593,-15.536042 15.839088,-15.536042 h 126.71272 a 15.83909,15.536044 0 0 1 15.8391,15.536042 v 93.216266 a 15.83909,15.536044 0 0 1 -15.8391,15.53605 h -48.30922 l -29.30233,28.81935 c -1.5839,1.47596 -3.56378,2.25277 -5.54368,2.25277 v 0 h -3.95976 z"
       id="path3883" />
  </g>
  <g
     inkscape:label="car"
     id="layer2"
     inkscape:groupmode="layer">
    <path
       style="fill:#3f51b5;fill-opacity:1"
       inkscape:connector-curvature="0"
       d="M 96.644104,107.52059 103.3632,87.36323 h 49.27357 l 6.71913,20.15736 m -6.71913,22.39708 a 6.7191223,6.7191223 0 0 1 -6.71912,-6.71913 6.7191223,6.7191223 0 0 1 6.71912,-6.71912 6.7191223,6.7191223 0 0 1 6.71913,6.71912 6.7191223,6.7191223 0 0 1 -6.71913,6.71913 m -49.27357,0 a 6.7191223,6.7191223 0 0 1 -6.719096,-6.71913 6.7191223,6.7191223 0 0 1 6.719096,-6.71912 6.7191223,6.7191223 0 0 1 6.71912,6.71912 6.7191223,6.7191223 0 0 1 -6.71912,6.71913 m 55.63434,-44.79415 c -0.89588,-2.59806 -3.40436,-4.479414 -6.36077,-4.479414 h -11.19854 v -8.95883 h -26.87648 v 8.95883 H 103.3632 c -2.95639,0 -5.464866,1.881354 -6.360746,4.479414 L 87.685267,112 v 35.83532 a 4.4794148,4.4794148 0 0 0 4.479421,4.4794 h 4.479416 a 4.4794148,4.4794148 0 0 0 4.479416,-4.4794 v -4.47941 h 53.75296 v 4.47941 a 4.4794148,4.4794148 0 0 0 4.47942,4.4794 h 4.47941 a 4.4794148,4.4794148 0 0 0 4.47942,-4.4794 V 112 l -9.31719,-26.87648 z"
       id="path3824" />
  </g>
</svg>
